# xmcd CD database file
#
# Track frame offsets:
#	150
#	14993
#	34429
#	44231
#	62197
#	76060
#	99582
#	110607
#	122787
#	136731
#
# Disc length: 2016 seconds
#
# Revision: 4
# Processed by: cddbd v1.5.2PL0 Copyright (c) Steve Scherf et al.
# Submitted via: CDex 1.51
#
DISCID=9207de0a
DTITLE=Various Artist - Love Soul Ballads - Disc 3
DYEAR=1998
DGENRE=Soul
TTITLE0=Platters - The Wonder of You
TTITLE1=Percy Sledge - You Send Me
TTITLE2=Gladys Knight and The Pips - Every Beat of My Heart
TTITLE3=Brook Benton - Love is Best of All
TTITLE4=Drifters - Wonderful World
TTITLE5=Three Degrees - Woman in Love
TTITLE6=Wilson Pickett - You Need Me
TTITLE7=Platters - My Prayer
TTITLE8=Ben E King - Don't Play That Song
TTITLE9=Percy Sledge - Warm and Tender Love
EXTD=Love Soul Ballads Vol.3 YEAR: 1998
EXTT0=
EXTT1=
EXTT2=
EXTT3=
EXTT4=
EXTT5=
EXTT6=
EXTT7=
EXTT8=
EXTT9=
PLAYORDER=
